# xmcd
#
# Track frame offsets: 
#        150
#        7079
#        10165
#        22002
#        30069
#        46672
#        61356
#        71766
#        76813
#        114649
#        127470
#        139205
#        154638
#        162567
#        178454
#        184479
#        217949
#        228686
#        246005
#        261420
#        264881
#        280579
#        292529
#
# Disc length: 4029 seconds
#
# Revision: 0
# Processed by: cddbd v1.5.1PL0 Copyright (c) Steve Scherf et al.
# Submitted via: ExactAudioCopy v0.95a5
#
DISCID=480fbb17
DTITLE=Dr John - New Orleans Piano Vol 2
DYEAR=1997
DGENRE=Blues
TTITLE0=Introduction
TTITLE1=Sweet Sixteen Bars
TTITLE2=Got My Mojo Working
TTITLE3=12 Bar Butterfly Stride
TTITLE4=Mixed Styles
TTITLE5=Playing The 10Th's
TTITLE6=Georgia
TTITLE7=10Th's Continued
TTITLE8=Lloyd Glen Style
TTITLE9=Charles Brown Style
TTITLE10=Right Hand Fills
TTITLE11=I'm Drifting (Comping)
TTITLE12=St James Infirmary
TTITLE13=Pretty Libby
TTITLE14=Techniques Continued
TTITLE15=Such A Night
TTITLE16=Blues Ballard
TTITLE17=Improvisation Concepts
TTITLE18=Big Mac
TTITLE19=Blues With A Raised 1 Chord
TTITLE20=Raised 1 Vamp
TTITLE21=I-IV-I Vamps
TTITLE22=Such A Night (Fade Out)
EXTD=
EXTT0=
EXTT1=
EXTT2=
EXTT3=
EXTT4=
EXTT5=
EXTT6=
EXTT7=
EXTT8=
EXTT9=
EXTT10=
EXTT11=
EXTT12=
EXTT13=
EXTT14=
EXTT15=
EXTT16=
EXTT17=
EXTT18=
EXTT19=
EXTT20=
EXTT21=
EXTT22=
PLAYORDER=
